<svg xmlns="http://www.w3.org/2000/svg" fill="none" viewBox="-1 -1 21.33 21.33"
    stroke="white" aria-hidden="true" id="Gif--Streamline-Heroicons-Outline.svg"
    height="25" width="25">
    <desc>Gif Streamline Icon: https://streamlinehq.com</desc>
    <path stroke-linecap="round" stroke-linejoin="round"
        d="M10.341549999999998 6.2822499999999994V13.047749999999997M15.753949999999996 6.2822499999999994H13.047749999999997V9.665M13.047749999999997 9.665V13.047749999999997M13.047749999999997 9.665H15.077399999999997M7.635349999999999 7.272751416666665C6.706221333333332 5.9521097083333325 5.201541916666666 5.9521097083333325 4.27241325 7.272751416666665C3.343284583333333 8.594279083333332 3.343284583333333 10.736687416666665 4.27241325 12.057248583333331C5.201541916666666 13.377890291666665 6.7071072916666665 13.377890291666665 7.635349999999999 12.057248583333331V9.665H6.2822499999999994M2.8994999999999997 16.430499999999995H16.430499999999995C17.551478916666664 16.430499999999995 18.46015 15.521828916666664 18.46015 14.400849999999997V4.929149999999999C18.46015 3.8082516249999996 17.551398374999998 2.899580541666666 16.430499999999995 2.8994999999999997H2.8994999999999997C1.7785210833333331 2.8994999999999997 0.8698499999999999 3.808171083333333 0.8698499999999999 4.929149999999999V14.400849999999997C0.8698499999999999 15.521828916666664 1.7785210833333331 16.430499999999995 2.8994999999999997 16.430499999999995Z"
        stroke-width="1.5"></path>
</svg>